<svg width="100" height="100" viewBox="0 0 100 100" fill="none" xmlns="http://www.w3.org/2000/svg">
    <rect width="100" height="100" rx="5" fill="#E4E4E4"/>
    <path d="m62.125 41.625-8.75-8.75c-.25-.25-.5-.375-.875-.375H40a2.507 2.507 0 0 0-2.5 2.5v30c0 1.375 1.125 2.5 2.5 2.5h20c1.375 0 2.5-1.125 2.5-2.5V42.5c0-.375-.125-.625-.375-.875zM52.5 35.5l7 7h-7v-7zM60 65H40V35h10v7.5c0 1.375 1.125 2.5 2.5 2.5H60v20z" fill="#1E1E1E"/>
    <path d="M42.5 57.5h15V60h-15v-2.5zM42.5 50h15v2.5h-15V50z" fill="#1E1E1E"/>
</svg>
