<svg width="128" height="14" viewBox="0 0 128 14" fill="none" xmlns="http://www.w3.org/2000/svg">
    <path d="M5.524 2.464a.5.5 0 0 1 .952 0L7.235 4.8a.5.5 0 0 0 .475.346h2.458a.5.5 0 0 1 .293.904L8.474 7.495a.5.5 0 0 0-.182.559l.76 2.337a.5.5 0 0 1-.77.559L6.294 9.505a.5.5 0 0 0-.588 0L3.718 10.95a.5.5 0 0 1-.77-.56l.76-2.336a.5.5 0 0 0-.182-.56L1.54 6.05a.5.5 0 0 1 .294-.904H4.29a.5.5 0 0 0 .475-.346l.76-2.336zM19.524 2.464a.5.5 0 0 1 .951 0l.76 2.336a.5.5 0 0 0 .475.346h2.457a.5.5 0 0 1 .294.904l-1.987 1.445a.5.5 0 0 0-.182.559l.76 2.337a.5.5 0 0 1-.77.559l-1.988-1.445a.5.5 0 0 0-.588 0l-1.988 1.445a.5.5 0 0 1-.77-.56l.76-2.336a.5.5 0 0 0-.181-.56L15.538 6.05a.5.5 0 0 1 .293-.904h2.458a.5.5 0 0 0 .475-.346l.76-2.336zM33.525 2.464a.5.5 0 0 1 .95 0l.76 2.336a.5.5 0 0 0 .475.346h2.457a.5.5 0 0 1 .294.904l-1.987 1.445a.5.5 0 0 0-.182.559l.76 2.337a.5.5 0 0 1-.77.559l-1.988-1.445a.5.5 0 0 0-.588 0l-1.988 1.445a.5.5 0 0 1-.77-.56l.76-2.336a.5.5 0 0 0-.181-.56L29.538 6.05a.5.5 0 0 1 .293-.904h2.458a.5.5 0 0 0 .475-.346l.76-2.336zM47.525 2.464a.5.5 0 0 1 .95 0l.76 2.336a.5.5 0 0 0 .475.346h2.457a.5.5 0 0 1 .294.904l-1.987 1.445a.5.5 0 0 0-.182.559l.76 2.337a.5.5 0 0 1-.77.559l-1.988-1.445a.5.5 0 0 0-.588 0l-1.988 1.445a.5.5 0 0 1-.77-.56l.76-2.336a.5.5 0 0 0-.181-.56L43.538 6.05a.5.5 0 0 1 .294-.904h2.457a.5.5 0 0 0 .475-.346l.76-2.336zM61.525 2.464a.5.5 0 0 1 .95 0l.76 2.336a.5.5 0 0 0 .475.346h2.458a.5.5 0 0 1 .293.904l-1.987 1.445a.5.5 0 0 0-.182.559l.76 2.337a.5.5 0 0 1-.77.559l-1.988-1.445a.5.5 0 0 0-.588 0l-1.988 1.445a.5.5 0 0 1-.77-.56l.76-2.336a.5.5 0 0 0-.181-.56L57.538 6.05a.5.5 0 0 1 .294-.904h2.457a.5.5 0 0 0 .475-.346l.76-2.336zM77.793 11h1.266V9.318h1.166V8.205h-1.166v-5.66h-1.87a115.294 115.294 0 0 0-3.521 5.66v1.113h4.125V11zm-2.865-2.771v-.083a96.636 96.636 0 0 1 2.806-4.494h.077V8.23h-2.883zm7.535 2.859a.84.84 0 0 0 .855-.85c0-.48-.369-.855-.855-.855a.847.847 0 0 0-.861.855c0 .475.375.85.86.85zm5.396.07c1.881 0 3.206-1.008 3.206-2.443v-.012c0-1.066-.768-1.916-1.876-2.156v-.03c.95-.269 1.565-.978 1.565-1.874V4.63c0-1.295-1.207-2.244-2.895-2.244-1.681 0-2.894.949-2.894 2.244v.012c0 .896.62 1.605 1.57 1.875v.029c-1.107.24-1.875 1.09-1.875 2.156v.012c0 1.435 1.324 2.443 3.2 2.443zm0-5.08c-.943 0-1.593-.55-1.593-1.324v-.012c0-.773.65-1.312 1.593-1.312.944 0 1.594.539 1.594 1.312v.012c0 .773-.644 1.324-1.594 1.324zm0 4.026c-1.078 0-1.845-.616-1.845-1.471V8.62c0-.867.761-1.494 1.845-1.494 1.09 0 1.852.627 1.852 1.494v.012c0 .855-.768 1.47-1.852 1.47z" fill="#FFBA08"/>
    <path d="M98.277 13.11h.856c-.85-1.085-1.483-3.417-1.483-5.467 0-2.034.633-4.383 1.483-5.467h-.856c-1.148 1.517-1.664 3.293-1.664 5.467 0 2.18.522 3.949 1.664 5.466zm6.305-2.11h1.031V9.248h1.201v-.943h-1.201v-5.76h-1.529a131.535 131.535 0 0 0-3.621 5.742v.961h4.119V11zm-3.041-2.69v-.07c.92-1.553 2.027-3.299 2.977-4.717h.07v4.788h-3.047zm9.668-5.964c-1.705 0-2.959 1.224-2.959 2.912v.012c0 1.623 1.184 2.83 2.771 2.83 1.143 0 1.94-.616 2.25-1.307h.112c0 .064 0 .135-.006.2-.065 1.763-.691 3.263-2.227 3.263-.855 0-1.447-.44-1.705-1.149l-.023-.064h-1.061l.018.076c.287 1.248 1.342 2.08 2.76 2.08 2.05 0 3.252-1.687 3.252-4.57v-.012c0-3.181-1.635-4.271-3.182-4.271zm-.006 4.834c-1.096 0-1.892-.809-1.892-1.934v-.012c0-1.095.849-1.957 1.91-1.957 1.072 0 1.91.88 1.91 1.993v.005c0 1.102-.832 1.905-1.928 1.905zm7.758 3.96c1.693 0 2.935-1.042 2.935-2.454v-.012c0-1.201-.837-1.969-2.068-2.074v-.024c1.055-.222 1.793-.937 1.793-1.98v-.012c0-1.283-1.06-2.18-2.672-2.18-1.582 0-2.672.92-2.806 2.297l-.006.059h1.013l.006-.059c.088-.855.797-1.383 1.793-1.383 1.031 0 1.612.51 1.612 1.395v.012c0 .843-.704 1.464-1.711 1.464h-1.014v.891h1.06c1.184 0 1.928.58 1.928 1.617v.012c0 .896-.756 1.518-1.863 1.518-1.125 0-1.893-.575-1.975-1.407l-.006-.058h-1.013l.006.07c.111 1.336 1.242 2.309 2.988 2.309zm5.203 1.97c1.143-1.518 1.664-3.288 1.664-5.467 0-2.174-.516-3.95-1.664-5.467h-.855c.849 1.084 1.482 3.433 1.482 5.467 0 2.05-.633 4.382-1.482 5.466h.855z" fill="#7E7E7E"/>
</svg>
