<svg width="20" height="20" viewBox="0 0 20 20" fill="none" xmlns="http://www.w3.org/2000/svg">
    <path d="M0 16.203V9.278a1.323 1.323 0 0 1 1.282-1.271h3.101c.887-.681 1.515-1.626 2.37-2.31.301-.24.535-.508.7-.803.537-1.054.211-2.282.975-3.123 1.533-.658 3.37.262 3.887 1.707.407 1.18.135 2.356-.371 3.398 1.83-.003 3.662.012 5.493.021C18.927 7.01 19.99 8.012 20 9.44c-.004 1.438-1.244 2.484-2.563 2.51h-2.154a3.257 3.257 0 0 1-.42 1.152 3.05 3.05 0 0 1-.69 2.38c-.293 5.113-6.99 2.08-9.499 2.003H1.282C.544 17.45.009 16.858 0 16.203zm4.62 0c2.007.043 8.866 3.078 8.207-1.271.726-.391 1.005-1.438.56-2.1.676-.667.869-1.505.216-2.165.646 0 1.285-.004 1.917-.01.631-.008 1.27-.012 1.917-.012.74-.015 1.252-.558 1.26-1.206a1.252 1.252 0 0 0-1.26-1.26c-2.507 0-4.978-.021-7.302-.021.209-1.68 2.212-3.96.167-5.283-.328-.161-.59-.23-.932-.167-.057.029-.09.057-.097.086a6.24 6.24 0 0 0-.032.14c-.218 1.331-.42 2.662-1.454 3.543-1.138.873-1.809 2.246-3.113 2.8H4.62v6.926z" fill="#118936"/>
</svg>
