<svg width="95" height="95" viewBox="0 0 95 95" fill="none" xmlns="http://www.w3.org/2000/svg">
    <path d="M46.403 19.678h2.42v-1.814h1.814v-2.42h-1.814V13.63h-2.42v1.814H44.59v2.42h1.814v1.814z" fill="#118936"/>
    <path d="M57.29 58.387h-1.21v-2.42h7.259a6.048 6.048 0 0 0 6.048-6.047V35.403a19.258 19.258 0 0 0-7.923-15.616l1.875-8.31A1.21 1.21 0 0 0 62.129 10H33.097a1.21 1.21 0 0 0-1.186 1.476l1.851 8.31a19.259 19.259 0 0 0-7.923 15.617V49.92a6.048 6.048 0 0 0 6.048 6.048h7.258v2.42h-1.21A16.935 16.935 0 0 0 21 75.322v8.467A1.21 1.21 0 0 0 22.21 85h50.806a1.21 1.21 0 0 0 1.21-1.21v-8.467A16.935 16.935 0 0 0 57.29 58.387zm0 2.42v2.915a4.549 4.549 0 0 1-1.21 3.133 3.799 3.799 0 0 1-5.225.387l-.726-.738a8.299 8.299 0 0 0 5.226-4.839l.326-.798 1.61-.06zM34.306 42.66v-8.467h8.468a11.274 11.274 0 0 0 9.678-5.48 11.287 11.287 0 0 0 8.467 5.48v8.467c0 .453-.024.905-.072 1.355a25.09 25.09 0 0 0-26.468 0 12.54 12.54 0 0 1-.073-1.355zm.678 3.823a22.778 22.778 0 0 1 25.258 0l.097.06a13.306 13.306 0 0 1-25.404 0l.049-.06zm6.58 10.694a15.725 15.725 0 0 0 12.097 0v2.189l-.532 1.343a5.952 5.952 0 0 1-11.032 0l-.533-1.343v-2.19zM60.617 12.42l-1.875 8.467H36.484l-1.875-8.467h26.008zm-32.359 37.5V35.403A16.79 16.79 0 0 1 34.306 22.4a1.21 1.21 0 0 0 1.21.907H59.71a1.21 1.21 0 0 0 1.21-.907 16.79 16.79 0 0 1 6.047 13.003V49.92a3.629 3.629 0 0 1-3.628 3.628h-4.404a15.725 15.725 0 0 0 4.404-10.887v-9.677a1.21 1.21 0 0 0-1.21-1.21 8.843 8.843 0 0 1-8.468-6.048l-.12-.375a1.21 1.21 0 0 0-2.3 0v.375a8.843 8.843 0 0 1-8.467 6.048h-9.677a1.21 1.21 0 0 0-1.21 1.21v9.677a15.726 15.726 0 0 0 4.403 10.887h-4.403a3.63 3.63 0 0 1-3.629-3.629zm11.274 10.887.327.798a8.285 8.285 0 0 0 5.238 4.839l-.666.665a3.81 3.81 0 0 1-5.286-.254 4.548 4.548 0 0 1-1.21-3.097v-2.951h1.597zM23.42 75.323a14.516 14.516 0 0 1 12.097-14.299v2.698a6.907 6.907 0 0 0 1.863 4.754 6.193 6.193 0 0 0 4.548 2.008 6.399 6.399 0 0 0 4.15-1.573l.326-.326V82.58H33.097v-6.049h-2.42v6.049H23.42v-7.258zm48.387 7.258h-7.258v-6.049h-2.42v6.049H48.823V68.573l.4.41a6.205 6.205 0 0 0 8.637-.507 6.895 6.895 0 0 0 1.85-4.754v-2.698a14.516 14.516 0 0 1 12.097 14.299v7.258z" fill="#384E85"/>
    <path d="M58.5 72.902h-2.42v2.42h-2.419v2.419h2.42v2.42H58.5v-2.42h2.42v-2.42H58.5v-2.419z" fill="#118936"/>
</svg>
