<svg width="28" height="28" viewBox="0 0 28 28" fill="none" xmlns="http://www.w3.org/2000/svg">
    <path d="M25.238 7.754a7.11 7.11 0 0 0-1.556-2.264 7.255 7.255 0 0 0-5.097-2.073A7.303 7.303 0 0 0 14 5.034a7.303 7.303 0 0 0-4.586-1.616A7.255 7.255 0 0 0 4.318 5.49a7.066 7.066 0 0 0-2.13 5.05c0 .911.185 1.86.555 2.825a12.65 12.65 0 0 0 1.318 2.488c.896 1.338 2.13 2.732 3.66 4.146 2.538 2.343 5.051 3.962 5.158 4.027l.648.416a.878.878 0 0 0 .943 0l.648-.416A41.467 41.467 0 0 0 20.275 20c1.532-1.414 2.765-2.808 3.662-4.146.566-.845 1.011-1.681 1.318-2.488.369-.965.555-1.914.555-2.825a6.962 6.962 0 0 0-.572-2.786z" fill="#7E7E7E"/>
</svg>
