<svg width="16" height="16" viewBox="0 0 16 16" fill="none" xmlns="http://www.w3.org/2000/svg">
    <path fill-rule="evenodd" clip-rule="evenodd" d="M2.667 14.333A.333.333 0 0 1 3 14h10a.333.333 0 1 1 0 .667H3a.333.333 0 0 1-.333-.334zM6.333 2.667h-3V2h3v.667zM13 2.667h-3V2h3v.667zM5.667 3.667h-2V3h2v.667zM12.334 3.667h-2V3h2v.667zM10.667 12.667H5.334V12h5.333v.667zM8.333 2.333V5h-.666V2.333h.666z" fill="#1E1E1E"/>
    <path fill-rule="evenodd" clip-rule="evenodd" d="M6.667 3.333h2.666V4H6.667v-.667z" fill="#1E1E1E"/>
    <path fill-rule="evenodd" clip-rule="evenodd" d="M9.667 2H6.333v3.333h3.334V2zm-3.334-.667h3.334a.667.667 0 0 1 .666.667v3.333A.667.667 0 0 1 9.667 6H6.333a.667.667 0 0 1-.666-.667V2a.667.667 0 0 1 .666-.667zM3.667 14V2.334h.666V14h-.666zM11.667 14V2.334h.666V14h-.666zM7.667 14v-1.333h.666V14h-.666zM9.667 14v-1.333h.666V14h-.666zM5.667 14v-1.333h.666V14h-.666z" fill="#1E1E1E"/>
    <path d="M5.333 6.667h1.334v1H5.334v-1zM5.333 8.334h1.334v1H5.334v-1zM5.333 10h1.334v1H5.334v-1zM7.333 6.667h1.334v1H7.334v-1zM7.333 8.334h1.334v1H7.334v-1zM7.333 10h1.334v1H7.334v-1zM9.334 6.667h1.333v1H9.334v-1zM9.334 8.334h1.333v1H9.334v-1zM9.334 10h1.333v1H9.334v-1z" fill="#1E1E1E"/>
</svg>
