<svg width="150" height="150" viewBox="0 0 150 150" fill="none" xmlns="http://www.w3.org/2000/svg">
    <circle cx="75" cy="75" r="75" fill="#F2F2F2"/>
    <path d="M127.583 55.083h-1.666v-1.666a.418.418 0 0 0-.834 0v1.666h-1.666a.416.416 0 1 0 0 .834h1.666v1.666a.418.418 0 0 0 .834 0v-1.666h1.666a.416.416 0 1 0 0-.834z" fill="#FD0"/>
    <path d="M77.175 29.987a2.5 2.5 0 1 1 0-5 2.5 2.5 0 0 1 0 5zm0-4.166a1.667 1.667 0 1 0 0 3.333 1.667 1.667 0 0 0 0-3.333z" fill="#40BDFF"/>
    <path d="M36.5 127a2.505 2.505 0 0 1-2.31-1.543 2.503 2.503 0 0 1 1.822-3.409 2.505 2.505 0 0 1 2.567 1.063A2.501 2.501 0 0 1 36.5 127zm0-4.167a1.668 1.668 0 1 0 .001 3.335 1.668 1.668 0 0 0-.001-3.335z" fill="#FD0"/>
    <path d="M131.583 99.083h-1.079l.763-.762a.418.418 0 0 0-.022-.566.417.417 0 0 0-.566-.022l-.762.763v-1.08a.418.418 0 0 0-.834 0v1.08l-.762-.763a.417.417 0 0 0-.588.588l.759.762h-1.075a.416.416 0 1 0 0 .834h1.079l-.763.762a.418.418 0 0 0 .301.688.418.418 0 0 0 .287-.1l.762-.763v1.079a.417.417 0 1 0 .834 0v-1.079l.762.763a.418.418 0 0 0 .688-.301.418.418 0 0 0-.1-.287l-.763-.762h1.079a.416.416 0 1 0 0-.834z" fill="#40BDFF"/>
    <path fill-rule="evenodd" clip-rule="evenodd" d="M103.796 62.907c-2.734-.717-9.163-.708-18.567-.958.444-2.051.547-3.902.547-7.188C85.776 46.912 80.058 40 75 40c-3.572 0-6.517 2.92-6.563 6.512-.048 4.406-1.41 12.014-8.75 15.873a78.872 78.872 0 0 1-2.303 1.142l.116.098c-1.148-.99-2.74-1.75-4.375-1.75h-6.563A6.57 6.57 0 0 0 40 68.438v35A6.57 6.57 0 0 0 46.563 110h6.562c2.603 0 4.782-1.573 5.836-3.778a.63.63 0 0 0 .103.026c.144.04.315.081.523.136l.1.026c1.26.313 3.686.893 8.87 2.085 1.112.254 6.983 1.505 13.065 1.505H93.58c3.644 0 6.271-1.402 7.835-4.217.022-.044.525-1.026.937-2.354.308-1 .422-2.415.05-3.85 2.349-1.615 3.106-4.056 3.598-5.644.825-2.605.578-4.563.005-5.965 1.321-1.247 2.447-3.148 2.922-6.05a8.222 8.222 0 0 0-.851-5.19c1.238-1.39 1.803-3.14 1.868-4.76l.027-.457c.015-.286.028-.464.028-1.094 0-2.762-1.914-6.287-6.204-7.511zm-48.484 40.531a2.186 2.186 0 0 1-2.187 2.187h-6.563a2.186 2.186 0 0 1-2.187-2.187v-35c0-1.21.978-2.188 2.188-2.188h6.562c1.21 0 2.188.978 2.188 2.188v35zm50.263-31.643c-.044 1.08-.497 3.205-4.325 3.205h-4.375a1.093 1.093 0 1 0 0 2.188h4.239c3.282 0 3.713 2.72 3.5 4.033-.271 1.632-1.037 4.716-4.731 4.716h-5.195a1.094 1.094 0 0 0 0 2.188h4.307c3.692 0 3.366 2.815 2.837 4.495-.698 2.207-1.124 4.255-5.777 4.255h-3.568a1.094 1.094 0 0 0 0 2.188h3.43c2.393 0 2.505 2.264 2.255 3.075-.273.888-.597 1.547-.61 1.577-.66 1.193-1.726 1.91-3.981 1.91H81.62c-6.006 0-11.965-1.363-12.118-1.398-9.087-2.093-9.566-2.255-10.137-2.417 0 0-1.85-.313-1.85-1.927L57.5 69.669c0-1.026.654-1.953 1.737-2.28.136-.052.32-.109.45-.163 9.993-4.14 13.036-13.213 13.126-20.663.013-1.048.82-2.188 2.187-2.188 2.312 0 6.4 4.642 6.4 10.386 0 5.187-.21 6.084-2.025 11.489 21.875 0 21.722.315 23.651.82 2.393.685 2.599 2.667 2.599 3.35 0 .75-.022.64-.05 1.375z" fill="#118936"/>
    <path fill-rule="evenodd" clip-rule="evenodd" d="M49.844 96.875a3.282 3.282 0 0 0 0 6.563 3.283 3.283 0 0 0 0-6.563zm0 4.375a1.097 1.097 0 0 1-1.094-1.094c0-.601.492-1.094 1.094-1.094.601 0 1.093.493 1.093 1.094 0 .602-.492 1.094-1.093 1.094z" fill="#118936"/>
</svg>
