<svg width="26" height="25" viewBox="0 0 26 25" fill="none" xmlns="http://www.w3.org/2000/svg">
    <path d="M19.493 19.399c1.328-1.275 2.08-2.975 2.08-4.738 0-1.874-.815-3.627-2.293-4.936C17.84 8.45 15.937 7.75 13.917 7.75c-2.02 0-3.923.701-5.362 1.975-1.478 1.309-2.292 3.062-2.292 4.936s.814 3.627 2.292 4.936c1.439 1.273 3.343 1.974 5.362 1.974.27 0 .54-.012.809-.038l.458.429c1.58 1.476 3.601 2.288 5.692 2.288h.696v-1.596l-.204-.22a9.419 9.419 0 0 1-1.875-3.035zm-3.397 1.43-.92-.86-.308.04a7.278 7.278 0 0 1-.95.062c-3.454 0-6.264-2.427-6.264-5.41 0-2.984 2.81-5.411 6.263-5.411 3.454 0 6.263 2.427 6.263 5.41 0 1.487-.688 2.875-1.937 3.908l-.401.332.185.564a11.103 11.103 0 0 0 1.647 3.179 7.085 7.085 0 0 1-3.578-1.815z" fill="#1E1E1E"/>
    <path d="M2.618 15.882a10.594 10.594 0 0 0 1.514-2.954l.183-.562-.4-.331c-1.178-.974-1.827-2.282-1.827-3.682 0-2.814 2.653-5.103 5.915-5.103 2.4 0 4.47 1.239 5.396 3.014a9.925 9.925 0 0 1 1.555.04c-.358-1-.98-1.912-1.835-2.67C11.746 2.42 9.93 1.75 8.003 1.75c-1.927 0-3.744.67-5.116 1.885C1.474 4.885.697 6.56.697 8.353c0 1.678.71 3.295 1.967 4.511A8.907 8.907 0 0 1 .9 15.711l-.204.22V17.5h.696a7.806 7.806 0 0 0 3.707-.943 7.906 7.906 0 0 1-.22-1.577 6.598 6.598 0 0 1-2.261.902z" fill="#1E1E1E"/>
    <path d="M20.907 9.617c2.174 0 3.843-1.882 3.843-4.083 0-2.202-1.669-4.084-3.843-4.084s-3.843 1.882-3.843 4.084c0 2.2 1.669 4.083 3.843 4.083z" fill="#DB2828" stroke="#fff" stroke-width="1.5"/>
</svg>
