<svg width="29" height="28" viewBox="0 0 29 28" fill="none" xmlns="http://www.w3.org/2000/svg">
    <path d="m21.943 19.455-5.493-5.493 5.493-5.494.007-.007.006-.007a1.028 1.028 0 0 0-1.45-1.45l-.006.007-.007.007L15 12.511l-5.494-5.5-.007-.008-.007-.006a1.028 1.028 0 0 0-1.45 1.45l.007.007.007.006 5.493 5.501-5.494 5.487a1.028 1.028 0 0 0 1.124 1.7l-.11-.226.11.225c.124-.06.235-.144.326-.248l5.494-5.487 5.494 5.493.007.007.007.006a1.028 1.028 0 0 0 1.449-1.45l-.006-.006-.007-.007z" fill="#fff" stroke="#fff" stroke-width=".5"/>
</svg>
