<svg width="119" height="37" viewBox="0 0 119 37" fill="none" xmlns="http://www.w3.org/2000/svg">
    <path fill-rule="evenodd" clip-rule="evenodd" d="M5.755 23.6c1.59 0 3.18-.002 4.771.001.33 0 .614-.12.702-.432.056-.2.026-.503-.096-.654-.127-.156-.41-.251-.628-.257-1.28-.031-2.56-.027-3.84-.037-1.495-.012-2.93-.252-4.142-1.211C.55 19.447-.259 17.386.202 14.932c.478-2.54 2.146-4.066 4.588-4.743a8.64 8.64 0 0 1 2.19-.292c2.951-.033 5.903-.001 8.854-.023 1.025-.008 1.363.858 1.087 1.431-.222.459-.619.6-1.1.598-2.372-.003-4.744-.018-7.116.007-1.06.01-2.142-.018-3.173.183-1.707.334-2.917 1.342-3.342 3.11-.518 2.16.868 4.413 3.042 4.869.69.144 1.418.122 2.13.135 1.09.02 2.183-.004 3.274.008 1.34.014 2.52 1.053 2.656 2.315.155 1.44-.65 2.65-2.019 2.989-.322.08-.666.097-1 .097-2.979.007-5.957.004-8.935.002-.161 0-.324-.012-.483-.037-.54-.084-.885-.51-.853-1.046a.979.979 0 0 1 .983-.93c1.59-.01 3.18-.004 4.77-.004z" fill="#3E3E3E"/>
    <path fill-rule="evenodd" clip-rule="evenodd" d="M11.097 13.322c1.617 0 3.234-.002 4.85 0 .626 0 1.055.392 1.068.964.012.578-.437 1.016-1.066 1.017-3.126.003-6.252-.002-9.378.01-.212 0-.491.06-.617.201a.933.933 0 0 0-.197.672c.042.299.294.467.622.466.539-.002 1.078-.013 1.617.003 1.25.04 2.508.02 3.749.155 2.157.236 3.694 1.448 4.598 3.38 1.722 3.68-.412 7.8-4.43 8.605-.76.153-1.547.23-2.322.238-2.762.028-5.525.012-8.287.008-.174 0-.35-.019-.519-.058a.977.977 0 0 1-.78-1.065c.043-.477.435-.867.933-.904.268-.02.539-.006.808-.006 2.803-.003 5.606.006 8.408-.015 1.226-.01 2.364-.326 3.336-1.124a3.983 3.983 0 0 0 1.258-4.235c-.509-1.64-1.808-2.769-3.44-2.854-1.64-.084-3.284-.068-4.926-.094-1.338-.02-2.499-1.008-2.656-2.264-.183-1.47.643-2.71 2.04-3.047.181-.043.374-.052.56-.052 1.59-.003 3.18-.002 4.77-.002zM101.59 15.676c-1.239 0-2.482-.063-3.717.018-1.287.084-2.401.637-2.969 1.858-.892 1.922.063 4.109 2.219 4.608.554.128 1.151.087 1.73.097.82.014 1.642 0 2.464.006.795.007 1.385.374 1.79 1.051.434.726.37 1.456-.055 2.142-.168.272-.44.517-.721.67a2.212 2.212 0 0 1-.997.28c-2.478.025-4.957.02-7.436.013-.548-.002-.883-.306-.876-.743.006-.47.34-.757.903-.757 2.264-.003 4.527 0 6.79-.003.214 0 .43-.02.643-.043.338-.037.506-.235.487-.574-.02-.359-.232-.532-.581-.534-1.091-.007-2.182-.004-3.274-.013-1.567-.012-2.902-.554-3.888-1.803-1.686-2.137-1.31-5.23.995-6.832 1.147-.797 2.432-.989 3.76-1.009 2.128-.032 4.257-.009 6.385-.008.054 0 .108-.001.162.002.509.033.885.355.894.765.008.415-.394.782-.909.786-1.266.01-2.532.003-3.799.003v.02z" fill="#3E3E3E"/>
    <path fill-rule="evenodd" clip-rule="evenodd" d="M101.736 16.85c1.173 0 2.345-.004 3.517.005.198.001.409.03.591.101.35.137.373.432.307.78-.135.706-.618.676-1.142.675-2.237-.007-4.474-.003-6.71-.003-.122 0-.244-.008-.364.007-.31.038-.494.216-.498.533-.005.333.18.54.512.558.403.022.808 0 1.212.01.969.022 1.939.031 2.907.083 1.982.106 3.898 2.051 4.103 4.01.087.83.039 1.606-.256 2.366-.533 1.372-1.507 2.32-2.902 2.781a5.999 5.999 0 0 1-1.686.291c-2.35.066-4.7.09-7.05.123a3.212 3.212 0 0 1-.682-.061.701.701 0 0 1-.571-.765.737.737 0 0 1 .65-.67c.12-.015.242-.006.363-.006 2.129 0 4.258.013 6.387-.007.973-.009 1.947-.096 2.795-.65 1.419-.926 1.691-2.18 1.392-3.502-.344-1.52-1.537-2.402-3.073-2.43-1.131-.02-2.261-.046-3.392-.059-1.512-.016-2.127-.957-2.216-1.92-.108-1.158.843-2.263 2.25-2.252 1.185.01 2.371.003 3.556.003zM23.08 19.189c1.463.203 2.192-.077 2.666-1.1.222-.48.34-1.017.445-1.54.08-.405.07-.83.09-1.245.027-.55.436-.981.966-1.005.514-.023 1 .348 1.013.888.046 1.96-.243 3.825-1.806 5.227a3.177 3.177 0 0 1-2.174.835c-.943 0-1.886-.008-2.828.007-.299.005-.394-.09-.393-.392.01-3.395.004-6.79.012-10.185.001-.237.03-.49.118-.708.18-.45.637-.644 1.137-.535.468.102.752.47.752 1.007.004 2.748.002 5.497.002 8.245v.5zM40.038 19.286c0-2.883-.002-5.767 0-8.65.001-.788.515-1.26 1.215-1.126.396.076.653.315.746.702.053.22.07.452.07.679.004 5.618.003 11.235 0 16.853 0 .2-.015.405-.057.6-.117.536-.51.824-1.05.792-.473-.028-.866-.418-.92-.918-.012-.12-.004-.243-.004-.364v-8.568zM49.2 19.289c0 2.898.002 5.797-.001 8.696 0 .71-.4 1.151-1.02 1.15a.96.96 0 0 1-.963-.807 2.57 2.57 0 0 1-.032-.442c-.002-5.717-.002-11.433 0-17.15 0-.827.408-1.296 1.074-1.247.576.042.938.456.94 1.103.005 1.86.002 3.721.002 5.582v3.115zM52.313 19.33c0 2.845.002 5.69-.003 8.535 0 .226-.015.464-.087.675-.137.4-.567.632-1.003.593a.979.979 0 0 1-.882-.767 1.873 1.873 0 0 1-.04-.44v-17.23c0-.72.3-1.122.88-1.195.571-.073 1.038.28 1.12.851.015.107.016.215.016.323v8.655zM19.995 19.212c0 2.884.002 5.768-.001 8.652 0 .83-.62 1.357-1.324 1.086-.246-.096-.45-.356-.616-.583-.092-.124-.09-.335-.09-.507-.004-5.768-.003-11.536-.003-17.305 0-.381.091-.723.417-.958.657-.477 1.538-.064 1.61.761.026.294.007.593.007.89v7.964zM45.159 19.306l-.001 8.818c-.001.528-.332.932-.809 1.006-.496.077-.957-.19-1.117-.661a1.254 1.254 0 0 1-.053-.396c-.003-5.838-.003-11.675-.001-17.513 0-.57.278-.943.759-1.041.522-.107.982.112 1.151.578.062.171.068.369.069.554.004 2.885.002 5.77.002 8.655zM26.9 21.884c.2-.215.343-.395.51-.548 1.347-1.229 1.846-2.834 2.027-4.576.047-.455.062-.913.078-1.37.022-.633.436-1.088 1.01-1.092.581-.004 1.006.428 1.003 1.085-.012 2.302-.429 4.495-1.802 6.43.986 1.326 1.56 2.824 1.79 4.445.09.634.07 1.288.044 1.931-.02.483-.545.877-1.023.84-.537-.043-.964-.447-.937-.973a7.967 7.967 0 0 0-.67-3.618c-.383-.887-.899-1.688-1.704-2.265-.108-.078-.2-.177-.326-.29zM38.368 21.524l-.001 6.35c0 .61-.29 1.01-.793 1.108-.606.118-1.103-.226-1.196-.838a3.23 3.23 0 0 1-.027-.483c-.002-4.099-.002-8.198-.001-12.297 0-.134 0-.27.015-.403.067-.595.484-.956 1.06-.927.538.027.925.438.94 1.018.011.472.002.944.002 1.416v5.056zM21.178 22.473c1.286 0 2.556-.07 3.814.02 1.098.08 1.924.74 2.482 1.678.726 1.219.905 2.574.858 3.965-.016.494-.488.893-.98.898a.993.993 0 0 1-.99-.882c-.085-.693-.106-1.4-.261-2.076-.18-.785-.555-1.494-1.474-1.614-.462-.06-.938-.01-1.473-.01v.606c0 .97.005 1.94-.003 2.91-.003.422-.178.76-.57.948-.37.18-.767.173-1.05-.12-.198-.205-.387-.524-.392-.795-.032-1.791-.014-3.583-.01-5.375 0-.037.023-.074.05-.153zM33.151 21.505v-6.39c0-.674.366-1.079.974-1.084.605-.005 1.005.407 1.006 1.065.003 4.286.002 8.573 0 12.86 0 .503-.256.87-.668 1-.438.14-.913.007-1.14-.376a1.322 1.322 0 0 1-.165-.645c-.011-2.143-.007-4.287-.007-6.43zM75.374 21.542v6.144c0 .148.004.298-.014.444-.052.395-.423.754-.805.794-.366.038-.788-.222-.92-.595a1.591 1.591 0 0 1-.087-.513c-.004-4.15-.004-8.3 0-12.449 0-.2.023-.406.072-.6a.895.895 0 0 1 .867-.659c.4.01.789.33.86.726.03.157.026.322.026.483v6.225zM33.151 12.11c.053-1.392.71-2.358 1.81-2.667 1.565-.438 3.064.578 3.32 2.255.036.238.083.485.055.72a.974.974 0 0 1-.991.877c-.551-.003-.936-.366-1.024-.946-.033-.223-.044-.478-.164-.65-.11-.16-.351-.306-.538-.311-.131-.004-.305.22-.393.38-.078.144-.082.337-.09.51-.03.668-.443 1.101-1.044 1.077-.579-.022-.962-.476-.951-1.125 0-.04.007-.08.01-.12zM75.376 12.18c-.01.593-.382 1.026-.91 1.047-.457.018-.862-.396-.933-.938a2.483 2.483 0 0 0-.127-.59c-.124-.313-.381-.44-.715-.401-.311.036-.42.26-.471.527-.033.171-.04.347-.066.52-.087.59-.492.946-1.018.899-.484-.044-.832-.497-.821-1.07.022-1.222.695-2.269 1.661-2.588 1.58-.52 2.891.435 3.29 1.92.058.218.074.45.11.675z" fill="#3E3E3E"/>
    <path d="M84.31 25.107a3.366 3.366 0 0 0 3.366-3.367 3.366 3.366 0 1 0-3.365 3.367z" stroke="#3E3E3E" stroke-width="1.6" stroke-miterlimit="20" stroke-linecap="round"/>
    <path d="M83.007 32.408s2.122 1.18 3.605-.306c1.195-1.199.972-3.272.972-3.272v-1.698c-1.02.664-2.06.987-3.37.987a6.514 6.514 0 0 1-6.513-6.517c0-3.6 2.916-6.517 6.513-6.517a6.515 6.515 0 0 1 6.513 6.517v8.747s.075 4.244-4.592 5.45c-2.701.697-4.87-.628-4.87-.628M61.16 25.106a3.366 3.366 0 0 0 3.365-3.367 3.366 3.366 0 1 0-3.366 3.367z" stroke="#3E3E3E" stroke-width="1.6" stroke-miterlimit="20" stroke-linecap="round"/>
    <path d="M59.851 32.407s2.123 1.18 3.606-.306c1.195-1.199.972-3.272.972-3.272v-1.698c-1.02.664-2.06.987-3.37.987a6.514 6.514 0 0 1-6.513-6.517c0-3.6 2.916-6.516 6.513-6.516a6.515 6.515 0 0 1 6.513 6.516v8.747s.075 4.244-4.593 5.45c-2.7.697-4.87-.628-4.87-.628" stroke="#3E3E3E" stroke-width="1.6" stroke-miterlimit="20" stroke-linecap="round"/>
    <path fill-rule="evenodd" clip-rule="evenodd" d="M72.17 21.568v6.143c0 .149.005.298-.014.444-.052.394-.422.754-.804.794-.366.039-.788-.222-.92-.595a1.59 1.59 0 0 1-.087-.513c-.004-4.149-.004-8.299 0-12.449 0-.2.023-.405.072-.6a.895.895 0 0 1 .867-.659c.4.01.789.33.86.726.03.158.026.322.026.483v6.226z" fill="#3E3E3E"/>
    <path d="M104.639 12.135h1.504v-5.88h2.295V4.909h-6.094v1.348h2.295v5.879zm5.244 0h1.338V7.35h.166l1.865 4.785h.957l1.865-4.785h.166v4.785h1.338V4.908h-1.709l-2.09 5.127h-.088l-2.099-5.127h-1.709v7.227z" fill="#3E3E3E"/>
</svg>
