<svg width="24" height="24" viewBox="0 0 24 24" fill="none" xmlns="http://www.w3.org/2000/svg">
    <path d="M5.25 20.25a.75.75 0 0 1-1.5 0V7.06L2.031 8.782A.751.751 0 1 1 .969 7.72l3-2.998.01-.01a.747.747 0 0 1 1.05.008l3 3a.75.75 0 0 1-1.06 1.062L5.25 7.061v13.19zm6-14.25a.75.75 0 0 1 0-1.5h1.5a.75.75 0 0 1 0 1.5h-1.5zm0 4.5a.75.75 0 0 1 0-1.5h4.5a.75.75 0 1 1 0 1.5h-4.5zm0 4.5a.75.75 0 0 1 0-1.5h7.5a.75.75 0 1 1 0 1.5h-7.5zm-.75 3.75a.75.75 0 0 0 .75.75h10.5a.75.75 0 0 0 0-1.5h-10.5a.75.75 0 0 0-.75.75z" fill="#7E7E7E"/>
</svg>
